<?xml version="1.0" encoding="utf-8"?>
<!-- Generator: Adobe Illustrator 18.1.1, SVG Export Plug-In . SVG Version: 6.00 Build 0)  -->
<svg version="1.1" id="Layer_1" xmlns="http://www.w3.org/2000/svg" xmlns:xlink="http://www.w3.org/1999/xlink" x="0px" y="0px"
	 viewBox="0 0 960 560" enable-background="new 0 0 960 560" xml:space="preserve">
<g>
	<text transform="matrix(1 0 0 1 266.189 386.1402)" fill="#F5C057" font-family="'Arial-ItalicMT'" font-size="21.4207">Learning, coding, and building a better Utah</text>
	<g>
		<circle fill="#F5C057" cx="471.8" cy="241.9" r="74.4"/>
		<polygon fill="#6D6E70" points="436,252.4 387,317 495.5,317 		"/>
		<polyline fill="#808184" points="531.9,317 472.4,252.4 423.4,317 		"/>
		<polyline fill="#929497" points="568.6,317 509.1,252.4 460.1,317 		"/>
		<text transform="matrix(1 0 0 1 352.6899 361.3111)"><tspan x="0" y="0" fill="#F5C057" font-family="'ArialMT'" font-size="57.8732">code</tspan><tspan x="125.5" y="0" fill="#6FCBDC" font-family="'ArialMT'" font-size="57.8732" letter-spacing="-2"> u</tspan><tspan x="169.7" y="0" fill="#6FCBDC" font-family="'ArialMT'" font-size="57.8732">tah</tspan></text>
		<g>
			<text transform="matrix(1 0 0 1 319.4585 366.1939)" fill="#F5C057" font-family="'ArialMT'" font-size="57.8732">&lt;</text>
		</g>
		<g>
			<text transform="matrix(1 0 0 1 599.501 369.1217)" fill="#6FCBDC" font-family="'ArialMT'" font-size="57.8732">&gt;</text>
		</g>
	</g>
</g>
<g>
	<g>
		<path fill="#FFFFFF" d="M-48.1,32.8c1.9,0,1.9-3,0-3C-50.1,29.8-50.1,32.8-48.1,32.8L-48.1,32.8z"/>
	</g>
</g>
</svg>
